<?xml version="1.0" encoding="UTF-8"?>
<svg xmlns="http://www.w3.org/2000/svg" width="1200" height="600" viewBox="0 0 1200 600">
  <defs>
    <filter id="shadow" x="-10%" y="-10%" width="120%" height="120%">
      <feDropShadow dx="2" dy="3" stdDeviation="3" flood-opacity="0.3"/>
    </filter>
    <linearGradient id="blue-gradient" x1="0%" y1="0%" x2="100%" y2="0%">
      <stop offset="0%" stop-color="#3b82f6"/>
      <stop offset="100%" stop-color="#1e40af"/>
    </linearGradient>
    <linearGradient id="green-gradient" x1="0%" y1="0%" x2="100%" y2="0%">
      <stop offset="0%" stop-color="#10b981"/>
      <stop offset="100%" stop-color="#047857"/>
    </linearGradient>
    <linearGradient id="orange-gradient" x1="0%" y1="0%" x2="100%" y2="0%">
      <stop offset="0%" stop-color="#f59e0b"/>
      <stop offset="100%" stop-color="#d97706"/>
    </linearGradient>
  </defs>
  
  <!-- 배경 -->
  <rect width="1200" height="600" fill="#f9fafb" rx="10" ry="10"/>
  
  <!-- 제목 -->
  <text x="600" y="40" font-family="'Noto Sans KR', sans-serif" font-size="28" font-weight="bold" text-anchor="middle" fill="#1e40af">울산 창업 원스톱 디지털 플랫폼 개념도</text>
  
  <!-- 핵심 플랫폼 -->
  <rect x="200" y="100" width="800" height="400" rx="10" ry="10" fill="#ffffff" stroke="#e5e7eb" stroke-width="2" filter="url(#shadow)"/>
  
  <!-- 플랫폼 레이어들 -->
  
  <!-- 상단 레이어: 사용자 인터페이스 -->
  <rect x="210" y="110" width="780" height="100" rx="8" ry="8" fill="#dbeafe" stroke="#3b82f6" stroke-width="2"/>
  <text x="600" y="135" font-family="'Noto Sans KR', sans-serif" font-size="18" font-weight="bold" text-anchor="middle" fill="#1e40af">사용자 인터페이스 레이어</text>
  
  <!-- 사용자 인터페이스 컴포넌트들 -->
  <rect x="250" y="150" width="140" height="40" rx="5" ry="5" fill="#bfdbfe" stroke="#3b82f6" stroke-width="1"/>
  <text x="320" y="175" font-family="'Noto Sans KR', sans-serif" font-size="14" font-weight="bold" text-anchor="middle" fill="#1e40af">창업 포털</text>
  
  <rect x="410" y="150" width="140" height="40" rx="5" ry="5" fill="#bfdbfe" stroke="#3b82f6" stroke-width="1"/>
  <text x="480" y="175" font-family="'Noto Sans KR', sans-serif" font-size="14" font-weight="bold" text-anchor="middle" fill="#1e40af">맞춤형 진단</text>
  
  <rect x="570" y="150" width="140" height="40" rx="5" ry="5" fill="#bfdbfe" stroke="#3b82f6" stroke-width="1"/>
  <text x="640" y="175" font-family="'Noto Sans KR', sans-serif" font-size="14" font-weight="bold" text-anchor="middle" fill="#1e40af">통합 신청</text>
  
  <rect x="730" y="150" width="140" height="40" rx="5" ry="5" fill="#bfdbfe" stroke="#3b82f6" stroke-width="1"/>
  <text x="800" y="175" font-family="'Noto Sans KR', sans-serif" font-size="14" font-weight="bold" text-anchor="middle" fill="#1e40af">대시보드</text>
  
  <!-- 중간 레이어: AI 추천 엔진 -->
  <rect x="210" y="220" width="780" height="120" rx="8" ry="8" fill="#dcfce7" stroke="#10b981" stroke-width="2"/>
  <text x="600" y="245" font-family="'Noto Sans KR', sans-serif" font-size="18" font-weight="bold" text-anchor="middle" fill="#047857">AI 추천 엔진 레이어</text>
  
  <!-- AI 추천 엔진 구성요소 -->
  <rect x="230" y="260" width="280" height="60" rx="5" ry="5" fill="#bbf7d0" stroke="#10b981" stroke-width="1"/>
  <text x="370" y="290" font-family="'Noto Sans KR', sans-serif" font-size="14" font-weight="bold" text-anchor="middle" fill="#047857">창업자 프로필 분석</text>
  <text x="370" y="310" font-family="'Noto Sans KR', sans-serif" font-size="11" text-anchor="middle" fill="#047857">(빅데이터 기반 맞춤형 알고리즘)</text>
  
  <rect x="530" y="260" width="280" height="60" rx="5" ry="5" fill="#bbf7d0" stroke="#10b981" stroke-width="1"/>
  <text x="670" y="290" font-family="'Noto Sans KR', sans-serif" font-size="14" font-weight="bold" text-anchor="middle" fill="#047857">지원 프로그램 매칭</text>
  <text x="670" y="310" font-family="'Noto Sans KR', sans-serif" font-size="11" text-anchor="middle" fill="#047857">(성공 확률 예측 모델)</text>
  
  <!-- 하단 레이어: 통합 서비스 -->
  <rect x="210" y="350" width="780" height="130" rx="8" ry="8" fill="#ffedd5" stroke="#f59e0b" stroke-width="2"/>
  <text x="600" y="375" font-family="'Noto Sans KR', sans-serif" font-size="18" font-weight="bold" text-anchor="middle" fill="#d97706">통합 서비스 레이어</text>
  
  <!-- 통합 서비스 구성요소 -->
  <rect x="230" y="390" width="160" height="70" rx="5" ry="5" fill="#fed7aa" stroke="#f59e0b" stroke-width="1"/>
  <text x="310" y="420" font-family="'Noto Sans KR', sans-serif" font-size="14" font-weight="bold" text-anchor="middle" fill="#d97706">원클릭 신청</text>
  <text x="310" y="440" font-family="'Noto Sans KR', sans-serif" font-size="11" text-anchor="middle" fill="#d97706">(스마트 서류 생성)</text>
  
  <rect x="410" y="390" width="160" height="70" rx="5" ry="5" fill="#fed7aa" stroke="#f59e0b" stroke-width="1"/>
  <text x="490" y="420" font-family="'Noto Sans KR', sans-serif" font-size="14" font-weight="bold" text-anchor="middle" fill="#d97706">통합 심사</text>
  <text x="490" y="440" font-family="'Noto Sans KR', sans-serif" font-size="11" text-anchor="middle" fill="#d97706">(실시간 처리)</text>
  
  <rect x="590" y="390" width="160" height="70" rx="5" ry="5" fill="#fed7aa" stroke="#f59e0b" stroke-width="1"/>
  <text x="670" y="420" font-family="'Noto Sans KR', sans-serif" font-size="14" font-weight="bold" text-anchor="middle" fill="#d97706">울산 특화 연계</text>
  <text x="670" y="440" font-family="'Noto Sans KR', sans-serif" font-size="11" text-anchor="middle" fill="#d97706">(제조업 밸류체인 연계)</text>
  
  <rect x="770" y="390" width="160" height="70" rx="5" ry="5" fill="#fed7aa" stroke="#f59e0b" stroke-width="1"/>
  <text x="850" y="420" font-family="'Noto Sans KR', sans-serif" font-size="14" font-weight="bold" text-anchor="middle" fill="#d97706">사후 관리</text>
  <text x="850" y="440" font-family="'Noto Sans KR', sans-serif" font-size="11" text-anchor="middle" fill="#d97706">(성장 단계별 지원)</text>
  
  <!-- 좌측 외부 연결 -->
  <rect x="50" y="220" width="120" height="160" rx="8" ry="8" fill="#f3f4f6" stroke="#9ca3af" stroke-width="2" filter="url(#shadow)"/>
  <text x="110" y="245" font-family="'Noto Sans KR', sans-serif" font-size="14" font-weight="bold" text-anchor="middle" fill="#4b5563">창업자</text>
  
  <circle cx="110" cy="280" r="30" fill="#bfdbfe" stroke="#3b82f6" stroke-width="2"/>
  <text x="110" y="285" font-family="'Noto Sans KR', sans-serif" font-size="22" font-weight="bold" text-anchor="middle" fill="#1e40af">예</text>
  
  <circle cx="80" cy="330" r="20" fill="#bbf7d0" stroke="#10b981" stroke-width="2"/>
  <text x="80" y="335" font-family="'Noto Sans KR', sans-serif" font-size="16" font-weight="bold" text-anchor="middle" fill="#047857">초</text>
  
  <circle cx="130" cy="330" r="20" fill="#fed7aa" stroke="#f59e0b" stroke-width="2"/>
  <text x="130" y="335" font-family="'Noto Sans KR', sans-serif" font-size="16" font-weight="bold" text-anchor="middle" fill="#d97706">기</text>
  
  <circle cx="80" cy="370" r="20" fill="#ddd6fe" stroke="#8b5cf6" stroke-width="2"/>
  <text x="80" y="375" font-family="'Noto Sans KR', sans-serif" font-size="16" font-weight="bold" text-anchor="middle" fill="#7c3aed">성</text>
  
  <circle cx="130" cy="370" r="20" fill="#fce7f3" stroke="#ec4899" stroke-width="2"/>
  <text x="130" y="375" font-family="'Noto Sans KR', sans-serif" font-size="16" font-weight="bold" text-anchor="middle" fill="#db2777">장</text>
  
  <!-- 우측 외부 연결 -->
  <rect x="1030" y="220" width="120" height="180" rx="8" ry="8" fill="#f3f4f6" stroke="#9ca3af" stroke-width="2" filter="url(#shadow)"/>
  <text x="1090" y="245" font-family="'Noto Sans KR', sans-serif" font-size="14" font-weight="bold" text-anchor="middle" fill="#4b5563">지원 기관</text>
  
  <rect x="1050" y="265" width="80" height="25" rx="3" ry="3" fill="#bfdbfe" stroke="#3b82f6" stroke-width="1"/>
  <text x="1090" y="282" font-family="'Noto Sans KR', sans-serif" font-size="10" text-anchor="middle" fill="#1e40af">울산광역시청</text>
  
  <rect x="1050" y="300" width="80" height="25" rx="3" ry="3" fill="#bbf7d0" stroke="#10b981" stroke-width="1"/>
  <text x="1090" y="317" font-family="'Noto Sans KR', sans-serif" font-size="10" text-anchor="middle" fill="#047857">경제일자리진흥원</text>
  
  <rect x="1050" y="335" width="80" height="25" rx="3" ry="3" fill="#fed7aa" stroke="#f59e0b" stroke-width="1"/>
  <text x="1090" y="352" font-family="'Noto Sans KR', sans-serif" font-size="10" text-anchor="middle" fill="#d97706">창조경제혁신센터</text>
  
  <rect x="1050" y="370" width="80" height="25" rx="3" ry="3" fill="#ddd6fe" stroke="#8b5cf6" stroke-width="1"/>
  <text x="1090" y="387" font-family="'Noto Sans KR', sans-serif" font-size="10" text-anchor="middle" fill="#7c3aed">중기부 지역본부</text>
  
  <!-- 연결선 -->
  <!-- 창업자 -> 플랫폼 -->
  <path d="M170 300 L210 300" fill="none" stroke="#9ca3af" stroke-width="2" stroke-dasharray="5,3"/>
  <polygon points="205,295 215,300 205,305" fill="#9ca3af"/>
  
  <!-- 플랫폼 -> 지원기관 -->
  <path d="M990 300 L1030 300" fill="none" stroke="#9ca3af" stroke-width="2" stroke-dasharray="5,3"/>
  <polygon points="1025,295 1035,300 1025,305" fill="#9ca3af"/>
  
  <!-- 아래쪽 설명 박스 -->
  <rect x="200" y="520" width="800" height="60" rx="5" ry="5" fill="#f3f4f6" stroke="#d1d5db" stroke-width="2"/>
  
  <rect x="220" y="535" width="20" height="20" fill="#dbeafe" stroke="#3b82f6" stroke-width="1"/>
  <text x="245" y="550" font-family="'Noto Sans KR', sans-serif" font-size="14" text-anchor="start" fill="#4b5563">정보 통합 레이어</text>
  
  <rect x="420" y="535" width="20" height="20" fill="#dcfce7" stroke="#10b981" stroke-width="1"/>
  <text x="445" y="550" font-family="'Noto Sans KR', sans-serif" font-size="14" text-anchor="start" fill="#4b5563">AI 추천 레이어</text>
  
  <rect x="620" y="535" width="20" height="20" fill="#ffedd5" stroke="#f59e0b" stroke-width="1"/>
  <text x="645" y="550" font-family="'Noto Sans KR', sans-serif" font-size="14" text-anchor="start" fill="#4b5563">통합 서비스 레이어</text>
  
  <!-- 차별화 포인트 표시 -->
  <circle cx="230" cy="180" r="15" fill="#ef4444" stroke="#b91c1c" stroke-width="1"/>
  <text x="230" y="185" font-family="'Noto Sans KR', sans-serif" font-size="16" font-weight="bold" text-anchor="middle" fill="white">1</text>
  
  <circle cx="390" cy="180" r="15" fill="#ef4444" stroke="#b91c1c" stroke-width="1"/>
  <text x="390" y="185" font-family="'Noto Sans KR', sans-serif" font-size="16" font-weight="bold" text-anchor="middle" fill="white">2</text>
  
  <circle cx="570" cy="440" r="15" fill="#ef4444" stroke="#b91c1c" stroke-width="1"/>
  <text x="570" y="445" font-family="'Noto Sans KR', sans-serif" font-size="16" font-weight="bold" text-anchor="middle" fill="white">3</text>
  
  <circle cx="750" cy="440" r="15" fill="#ef4444" stroke="#b91c1c" stroke-width="1"/>
  <text x="750" y="445" font-family="'Noto Sans KR', sans-serif" font-size="16" font-weight="bold" text-anchor="middle" fill="white">4</text>
  
  <!-- 워터마크 -->
  <text x="1180" y="590" font-family="'Noto Sans KR', sans-serif" font-size="12" text-anchor="end" fill="#9ca3af">© 울산 창업 원스톱 디지털 플랫폼</text>
</svg>